# xmcd
#
# Track frame offsets: 
#        150
#        23361
#        41165
#        61300
#        82611
#        104836
#        134524
#        150366
#        163892
#        184809
#        202362
#        215481
#        237442
#        255295
#        279354
#        299038
#        325271
#
# Disc length: 4498 seconds
#
# Revision: 0
# Processed by: cddbd v1.5.2PL0 Copyright (c) Steve Scherf et al.
# Submitted via: ExactAudioCopy v0.99pb5
#
DISCID=fa119011
DTITLE=Various Artist - Etno Hits
DYEAR=2011
DGENRE=Etno
TTITLE0=Ghita Munteanu - Ma asteapta puiul meu acasa
TTITLE1=Tinu Veresezan - Suparat, suparat
TTITLE2=Lorenna - Iubi, iubitel
TTITLE3=Varu' Sandel - Primaru'
TTITLE4=Triton - 'geaba jur ca nu mai beau
TTITLE5=Ciprian Picovici - Viata-i grea pe patru roti
TTITLE6=Marina - De mine sunt mandra foc
TTITLE7=Gheorg si Bianca Rus - Ce-i place osanului
TTITLE8=Ghita Munteanu - Beau cu socru'
TTITLE9=Lorenna - Lasa-mi, Doamne, soacra muta!
TTITLE10=Nastacuta Iuga - Tanara m-am maritat
TTITLE11=Varu' Sandel - Batranelul
TTITLE12=Puiu Codreanu - Verde-i frunza la fraguta
TTITLE13=Tinu Veresezan - Cu camasa rupta-n coate
TTITLE14=Triton - Vino, mandra, sa te joc
TTITLE15=Ciprian Picovici - Niciodata n-am fost sluga
TTITLE16=Fuego - La vecinul peste drum
EXTD=
EXTT0=
EXTT1=
EXTT2=
EXTT3=
EXTT4=
EXTT5=
EXTT6=
EXTT7=
EXTT8=
EXTT9=
EXTT10=
EXTT11=
EXTT12=
EXTT13=
EXTT14=
EXTT15=
EXTT16=
PLAYORDER=
